<mxfile host="app.diagrams.net" agent="Mozilla/5.0 (Windows NT 10.0; Win64; x64) AppleWebKit/537.36 (KHTML, like Gecko) Chrome/132.0.0.0 Safari/537.36" version="26.0.11">
  <diagram name="Page-1" id="qgWuIlnh5CFSSU0RH7Dd">
    <mxGraphModel dx="14493" dy="4487" grid="0" gridSize="5" guides="0" tooltips="1" connect="1" arrows="1" fold="1" page="0" pageScale="1" pageWidth="413" pageHeight="583" background="#FFFFFF" math="0" shadow="0">
      <root>
        <mxCell id="0" />
        <mxCell id="1" parent="0" />
        <mxCell id="nKcL2h3G8dzG1gcKwPtw-104" value="" style="group" vertex="1" connectable="0" parent="1">
          <mxGeometry x="-8936" y="-1184" width="1440" height="2541" as="geometry" />
        </mxCell>
        <mxCell id="nKcL2h3G8dzG1gcKwPtw-4" value="" style="rounded=0;whiteSpace=wrap;html=1;fillColor=#e1d5e7;strokeColor=#9673a6;container=0;" vertex="1" parent="nKcL2h3G8dzG1gcKwPtw-104">
          <mxGeometry width="1440" height="2540" as="geometry" />
        </mxCell>
        <mxCell id="nKcL2h3G8dzG1gcKwPtw-38" value="" style="rounded=0;whiteSpace=wrap;html=1;container=0;" vertex="1" parent="nKcL2h3G8dzG1gcKwPtw-104">
          <mxGeometry y="2439" width="1440" height="100" as="geometry" />
        </mxCell>
        <mxCell id="nKcL2h3G8dzG1gcKwPtw-19" value="Lien" style="text;html=1;align=center;verticalAlign=middle;whiteSpace=wrap;rounded=0;fontSize=28;container=0;" vertex="1" parent="nKcL2h3G8dzG1gcKwPtw-104">
          <mxGeometry x="1284" y="35" width="155" height="30" as="geometry" />
        </mxCell>
        <mxCell id="nKcL2h3G8dzG1gcKwPtw-20" value="Lien" style="text;html=1;align=center;verticalAlign=middle;whiteSpace=wrap;rounded=0;fontSize=28;container=0;" vertex="1" parent="nKcL2h3G8dzG1gcKwPtw-104">
          <mxGeometry x="1148" y="35" width="155" height="30" as="geometry" />
        </mxCell>
        <mxCell id="nKcL2h3G8dzG1gcKwPtw-21" value="Lien" style="text;html=1;align=center;verticalAlign=middle;whiteSpace=wrap;rounded=0;fontSize=28;container=0;" vertex="1" parent="nKcL2h3G8dzG1gcKwPtw-104">
          <mxGeometry x="1008" y="35" width="155" height="30" as="geometry" />
        </mxCell>
        <mxCell id="nKcL2h3G8dzG1gcKwPtw-22" value="Lien" style="text;html=1;align=center;verticalAlign=middle;whiteSpace=wrap;rounded=0;fontSize=28;container=0;" vertex="1" parent="nKcL2h3G8dzG1gcKwPtw-104">
          <mxGeometry x="859" y="35" width="155" height="30" as="geometry" />
        </mxCell>
        <mxCell id="nKcL2h3G8dzG1gcKwPtw-24" value="" style="rounded=1;whiteSpace=wrap;html=1;strokeWidth=2;fillWeight=4;hachureGap=8;hachureAngle=45;fillColor=#1ba1e2;sketch=1;container=0;" vertex="1" parent="nKcL2h3G8dzG1gcKwPtw-104">
          <mxGeometry x="62" y="155" width="740" height="500" as="geometry" />
        </mxCell>
        <mxCell id="nKcL2h3G8dzG1gcKwPtw-25" value="&lt;h1 style=&quot;margin-top: 0px;&quot;&gt;Heading&lt;/h1&gt;&lt;p&gt;Lorem ipsum dolor sit amet, consectetur adipisicing elit, sed do eiusmod tempor incididunt ut labore et dolore magna aliqua.&lt;/p&gt;&lt;p&gt;Lorem ipsum dolor sit amet, consectetur adipisicing elit, sed do eiusmod tempor incididunt ut labore et dolore magna aliqua.&lt;/p&gt;&lt;p&gt;Lorem ipsum dolor sit amet, consectetur adipisicing elit, sed do eiusmod tempor incididunt ut labore et dolore magna aliqua.&lt;/p&gt;" style="text;html=1;whiteSpace=wrap;overflow=hidden;rounded=0;fontSize=24;container=0;" vertex="1" parent="nKcL2h3G8dzG1gcKwPtw-104">
          <mxGeometry x="908" y="155" width="489" height="500" as="geometry" />
        </mxCell>
        <mxCell id="nKcL2h3G8dzG1gcKwPtw-28" value="" style="rounded=1;whiteSpace=wrap;html=1;strokeWidth=2;fillWeight=4;hachureGap=8;hachureAngle=45;fillColor=#ffff88;sketch=1;strokeColor=#36393d;container=0;" vertex="1" parent="nKcL2h3G8dzG1gcKwPtw-104">
          <mxGeometry x="851" y="866" width="536" height="740" as="geometry" />
        </mxCell>
        <mxCell id="nKcL2h3G8dzG1gcKwPtw-29" value="" style="rounded=1;whiteSpace=wrap;html=1;strokeWidth=2;fillWeight=4;hachureGap=8;hachureAngle=45;fillColor=#ffcccc;sketch=1;strokeColor=#36393d;container=0;" vertex="1" parent="nKcL2h3G8dzG1gcKwPtw-104">
          <mxGeometry x="56" y="1203" width="740" height="409" as="geometry" />
        </mxCell>
        <mxCell id="nKcL2h3G8dzG1gcKwPtw-31" value="&lt;h1 style=&quot;margin-top: 0px;&quot;&gt;&lt;font style=&quot;font-size: 44px;&quot;&gt;Heading&lt;/font&gt;&lt;/h1&gt;&lt;p&gt;&lt;font style=&quot;font-size: 24px;&quot;&gt;Lorem ipsum dolor sit amet, consectetur adipisicing elit, sed do eiusmod tempor incididunt ut labore et dolore magna aliqua.&lt;/font&gt;&lt;/p&gt;&lt;p&gt;&lt;font style=&quot;font-size: 24px;&quot;&gt;Lorem ipsum dolor sit amet, consectetur adipisicing elit, sed do eiusmod tempor incididunt ut labore et dolore magna aliqua.&lt;/font&gt;&lt;/p&gt;&lt;p&gt;&lt;font style=&quot;font-size: 24px;&quot;&gt;Lorem ipsum dolor sit amet, consectetur adipisicing elit, sed do eiusmod tempor incididunt ut labore et dolore magna aliqua.&lt;/font&gt;&lt;/p&gt;" style="text;html=1;whiteSpace=wrap;overflow=hidden;rounded=0;fontSize=20;container=0;" vertex="1" parent="nKcL2h3G8dzG1gcKwPtw-104">
          <mxGeometry x="56" y="855" width="767" height="329" as="geometry" />
        </mxCell>
        <mxCell id="nKcL2h3G8dzG1gcKwPtw-33" value="&lt;h1 style=&quot;margin-top: 0px;&quot;&gt;&lt;font style=&quot;font-size: 44px;&quot;&gt;Heading&lt;/font&gt;&lt;/h1&gt;&lt;p&gt;&lt;font style=&quot;font-size: 24px;&quot;&gt;Lorem ipsum dolor sit amet, consectetur adipisicing elit, sed do eiusmod tempor incididunt ut labore et dolore magna aliqua.&lt;/font&gt;&lt;/p&gt;&lt;p&gt;&lt;font style=&quot;font-size: 24px;&quot;&gt;Lorem ipsum dolor sit amet, consectetur adipisicing elit, sed do eiusmod tempor incididunt ut labore et dolore magna aliqua.&lt;/font&gt;&lt;/p&gt;&lt;p&gt;&lt;font style=&quot;font-size: 24px;&quot;&gt;Lorem ipsum dolor sit amet, consectetur adipisicing elit, sed do eiusmod tempor incididunt ut labore et dolore magna aliqua.&lt;/font&gt;&lt;/p&gt;" style="text;html=1;whiteSpace=wrap;overflow=hidden;rounded=0;fontSize=20;container=0;" vertex="1" parent="nKcL2h3G8dzG1gcKwPtw-104">
          <mxGeometry x="56" y="1817" width="767" height="329" as="geometry" />
        </mxCell>
        <mxCell id="nKcL2h3G8dzG1gcKwPtw-34" value="" style="rounded=1;whiteSpace=wrap;html=1;strokeWidth=2;fillWeight=4;hachureGap=8;hachureAngle=45;fillColor=#ffcc99;sketch=1;strokeColor=#36393d;container=0;" vertex="1" parent="nKcL2h3G8dzG1gcKwPtw-104">
          <mxGeometry x="833" y="1834" width="556" height="60" as="geometry" />
        </mxCell>
        <mxCell id="nKcL2h3G8dzG1gcKwPtw-35" value="" style="rounded=1;whiteSpace=wrap;html=1;strokeWidth=2;fillWeight=4;hachureGap=8;hachureAngle=45;fillColor=#ffcc99;sketch=1;strokeColor=#36393d;container=0;" vertex="1" parent="nKcL2h3G8dzG1gcKwPtw-104">
          <mxGeometry x="833" y="1933" width="556" height="60" as="geometry" />
        </mxCell>
        <mxCell id="nKcL2h3G8dzG1gcKwPtw-36" value="" style="rounded=1;whiteSpace=wrap;html=1;strokeWidth=2;fillWeight=4;hachureGap=8;hachureAngle=45;fillColor=#ffcc99;sketch=1;strokeColor=#36393d;container=0;" vertex="1" parent="nKcL2h3G8dzG1gcKwPtw-104">
          <mxGeometry x="833" y="2034" width="556" height="60" as="geometry" />
        </mxCell>
        <mxCell id="nKcL2h3G8dzG1gcKwPtw-37" value="" style="rounded=1;whiteSpace=wrap;html=1;strokeWidth=2;fillWeight=4;hachureGap=8;hachureAngle=45;fillColor=#ffcc99;sketch=1;strokeColor=#36393d;container=0;" vertex="1" parent="nKcL2h3G8dzG1gcKwPtw-104">
          <mxGeometry x="833" y="2133" width="556" height="60" as="geometry" />
        </mxCell>
        <UserObject label="Button" link="https://www.draw.io" id="nKcL2h3G8dzG1gcKwPtw-43">
          <mxCell style="text;html=1;strokeColor=none;fillColor=none;whiteSpace=wrap;align=left;verticalAlign=middle;fontColor=#0000EE;fontStyle=4;fontSize=32;container=0;" vertex="1" parent="nKcL2h3G8dzG1gcKwPtw-104">
            <mxGeometry x="908" y="599" width="184" height="40" as="geometry" />
          </mxCell>
        </UserObject>
        <mxCell id="nKcL2h3G8dzG1gcKwPtw-45" value="FOOTER" style="text;html=1;align=center;verticalAlign=middle;whiteSpace=wrap;rounded=0;fontSize=48;container=0;" vertex="1" parent="nKcL2h3G8dzG1gcKwPtw-104">
          <mxGeometry x="545" y="2450" width="405" height="91" as="geometry" />
        </mxCell>
        <mxCell id="nKcL2h3G8dzG1gcKwPtw-14" value="" style="rounded=0;whiteSpace=wrap;html=1;container=0;" vertex="1" parent="nKcL2h3G8dzG1gcKwPtw-104">
          <mxGeometry y="1" width="1440" height="100" as="geometry" />
        </mxCell>
        <mxCell id="nKcL2h3G8dzG1gcKwPtw-15" value="Logo" style="text;html=1;align=center;verticalAlign=middle;whiteSpace=wrap;rounded=0;fontSize=48;container=0;" vertex="1" parent="nKcL2h3G8dzG1gcKwPtw-104">
          <mxGeometry y="27" width="178" height="45" as="geometry" />
        </mxCell>
        <mxCell id="nKcL2h3G8dzG1gcKwPtw-26" value="" style="rounded=0;whiteSpace=wrap;html=1;container=0;" vertex="1" parent="nKcL2h3G8dzG1gcKwPtw-104">
          <mxGeometry y="717" width="1440" height="100" as="geometry" />
        </mxCell>
        <mxCell id="nKcL2h3G8dzG1gcKwPtw-32" value="" style="rounded=0;whiteSpace=wrap;html=1;container=0;" vertex="1" parent="nKcL2h3G8dzG1gcKwPtw-104">
          <mxGeometry y="1677" width="1440" height="100" as="geometry" />
        </mxCell>
        <mxCell id="nKcL2h3G8dzG1gcKwPtw-100" value="Lien" style="text;html=1;align=center;verticalAlign=middle;whiteSpace=wrap;rounded=0;fontSize=36;container=0;" vertex="1" parent="nKcL2h3G8dzG1gcKwPtw-104">
          <mxGeometry x="1217" y="14" width="213" height="80" as="geometry" />
        </mxCell>
        <mxCell id="nKcL2h3G8dzG1gcKwPtw-101" value="Lien" style="text;html=1;align=center;verticalAlign=middle;whiteSpace=wrap;rounded=0;fontSize=36;container=0;" vertex="1" parent="nKcL2h3G8dzG1gcKwPtw-104">
          <mxGeometry x="1059" y="14" width="213" height="80" as="geometry" />
        </mxCell>
        <mxCell id="nKcL2h3G8dzG1gcKwPtw-102" value="Lien" style="text;html=1;align=center;verticalAlign=middle;whiteSpace=wrap;rounded=0;fontSize=36;container=0;" vertex="1" parent="nKcL2h3G8dzG1gcKwPtw-104">
          <mxGeometry x="887" y="14" width="213" height="80" as="geometry" />
        </mxCell>
        <mxCell id="nKcL2h3G8dzG1gcKwPtw-139" value="" style="group" vertex="1" connectable="0" parent="1">
          <mxGeometry x="-5806" y="-1182" width="1440" height="1308" as="geometry" />
        </mxCell>
        <mxCell id="nKcL2h3G8dzG1gcKwPtw-106" value="" style="rounded=0;whiteSpace=wrap;html=1;fillColor=#e1d5e7;strokeColor=#9673a6;container=0;" vertex="1" parent="nKcL2h3G8dzG1gcKwPtw-139">
          <mxGeometry width="1440" height="1308" as="geometry" />
        </mxCell>
        <mxCell id="nKcL2h3G8dzG1gcKwPtw-107" value="" style="rounded=0;whiteSpace=wrap;html=1;container=0;" vertex="1" parent="nKcL2h3G8dzG1gcKwPtw-139">
          <mxGeometry y="1207" width="1440" height="100" as="geometry" />
        </mxCell>
        <mxCell id="nKcL2h3G8dzG1gcKwPtw-113" value="&lt;h1 style=&quot;margin-top: 0px;&quot;&gt;Bienvenue ! Nous sommes heureux de vous revoir !&lt;/h1&gt;" style="text;html=1;whiteSpace=wrap;overflow=hidden;rounded=0;fontSize=32;container=0;align=left;" vertex="1" parent="nKcL2h3G8dzG1gcKwPtw-139">
          <mxGeometry x="46" y="146" width="1182" height="216" as="geometry" />
        </mxCell>
        <UserObject label="Connexion" link="https://www.draw.io" id="nKcL2h3G8dzG1gcKwPtw-122">
          <mxCell style="text;html=1;strokeColor=none;fillColor=none;whiteSpace=wrap;align=left;verticalAlign=middle;fontColor=#0000EE;fontStyle=4;fontSize=60;container=0;" vertex="1" parent="nKcL2h3G8dzG1gcKwPtw-139">
            <mxGeometry x="55" y="635" width="460" height="110" as="geometry" />
          </mxCell>
        </UserObject>
        <mxCell id="nKcL2h3G8dzG1gcKwPtw-123" value="FOOTER" style="text;html=1;align=center;verticalAlign=middle;whiteSpace=wrap;rounded=0;fontSize=48;container=0;" vertex="1" parent="nKcL2h3G8dzG1gcKwPtw-139">
          <mxGeometry x="536" y="1210" width="405" height="91" as="geometry" />
        </mxCell>
        <mxCell id="nKcL2h3G8dzG1gcKwPtw-133" value="" style="rounded=1;whiteSpace=wrap;html=1;strokeWidth=2;fillWeight=4;hachureGap=8;hachureAngle=45;sketch=1;fillColor=#6a00ff;fontColor=#ffffff;strokeColor=#3700CC;" vertex="1" parent="nKcL2h3G8dzG1gcKwPtw-139">
          <mxGeometry x="55" y="384" width="661" height="73" as="geometry" />
        </mxCell>
        <mxCell id="nKcL2h3G8dzG1gcKwPtw-134" value="" style="rounded=1;whiteSpace=wrap;html=1;strokeWidth=2;fillWeight=4;hachureGap=8;hachureAngle=45;sketch=1;fillColor=#6a00ff;fontColor=#ffffff;strokeColor=#3700CC;" vertex="1" parent="nKcL2h3G8dzG1gcKwPtw-139">
          <mxGeometry x="55" y="509" width="661" height="73" as="geometry" />
        </mxCell>
        <mxCell id="nKcL2h3G8dzG1gcKwPtw-137" value="" style="rounded=1;whiteSpace=wrap;html=1;strokeWidth=2;fillWeight=4;hachureGap=8;hachureAngle=45;fillColor=#0050ef;sketch=1;fontColor=#ffffff;strokeColor=#001DBC;" vertex="1" parent="nKcL2h3G8dzG1gcKwPtw-139">
          <mxGeometry x="875" y="331" width="498" height="580" as="geometry" />
        </mxCell>
        <mxCell id="nKcL2h3G8dzG1gcKwPtw-138" value="" style="group" vertex="1" connectable="0" parent="nKcL2h3G8dzG1gcKwPtw-139">
          <mxGeometry y="1" width="1440" height="100" as="geometry" />
        </mxCell>
        <mxCell id="nKcL2h3G8dzG1gcKwPtw-108" value="Lien" style="text;html=1;align=center;verticalAlign=middle;whiteSpace=wrap;rounded=0;fontSize=28;container=0;" vertex="1" parent="nKcL2h3G8dzG1gcKwPtw-138">
          <mxGeometry x="1284" y="34" width="155" height="30" as="geometry" />
        </mxCell>
        <mxCell id="nKcL2h3G8dzG1gcKwPtw-109" value="Lien" style="text;html=1;align=center;verticalAlign=middle;whiteSpace=wrap;rounded=0;fontSize=28;container=0;" vertex="1" parent="nKcL2h3G8dzG1gcKwPtw-138">
          <mxGeometry x="1148" y="34" width="155" height="30" as="geometry" />
        </mxCell>
        <mxCell id="nKcL2h3G8dzG1gcKwPtw-110" value="Lien" style="text;html=1;align=center;verticalAlign=middle;whiteSpace=wrap;rounded=0;fontSize=28;container=0;" vertex="1" parent="nKcL2h3G8dzG1gcKwPtw-138">
          <mxGeometry x="1008" y="34" width="155" height="30" as="geometry" />
        </mxCell>
        <mxCell id="nKcL2h3G8dzG1gcKwPtw-111" value="Lien" style="text;html=1;align=center;verticalAlign=middle;whiteSpace=wrap;rounded=0;fontSize=28;container=0;" vertex="1" parent="nKcL2h3G8dzG1gcKwPtw-138">
          <mxGeometry x="859" y="34" width="155" height="30" as="geometry" />
        </mxCell>
        <mxCell id="nKcL2h3G8dzG1gcKwPtw-124" value="" style="rounded=0;whiteSpace=wrap;html=1;container=0;" vertex="1" parent="nKcL2h3G8dzG1gcKwPtw-138">
          <mxGeometry width="1440" height="100" as="geometry" />
        </mxCell>
        <mxCell id="nKcL2h3G8dzG1gcKwPtw-125" value="Logo" style="text;html=1;align=center;verticalAlign=middle;whiteSpace=wrap;rounded=0;fontSize=48;container=0;" vertex="1" parent="nKcL2h3G8dzG1gcKwPtw-138">
          <mxGeometry y="26" width="178" height="45" as="geometry" />
        </mxCell>
        <mxCell id="nKcL2h3G8dzG1gcKwPtw-128" value="Lien" style="text;html=1;align=center;verticalAlign=middle;whiteSpace=wrap;rounded=0;fontSize=36;container=0;" vertex="1" parent="nKcL2h3G8dzG1gcKwPtw-138">
          <mxGeometry x="1217" y="13" width="213" height="80" as="geometry" />
        </mxCell>
        <mxCell id="nKcL2h3G8dzG1gcKwPtw-129" value="Lien" style="text;html=1;align=center;verticalAlign=middle;whiteSpace=wrap;rounded=0;fontSize=36;container=0;" vertex="1" parent="nKcL2h3G8dzG1gcKwPtw-138">
          <mxGeometry x="1059" y="13" width="213" height="80" as="geometry" />
        </mxCell>
        <mxCell id="nKcL2h3G8dzG1gcKwPtw-130" value="Lien" style="text;html=1;align=center;verticalAlign=middle;whiteSpace=wrap;rounded=0;fontSize=36;container=0;" vertex="1" parent="nKcL2h3G8dzG1gcKwPtw-138">
          <mxGeometry x="887" y="13" width="213" height="80" as="geometry" />
        </mxCell>
        <mxCell id="nKcL2h3G8dzG1gcKwPtw-140" value="" style="group" vertex="1" connectable="0" parent="1">
          <mxGeometry x="-7401" y="-1186" width="1440" height="1308" as="geometry" />
        </mxCell>
        <mxCell id="nKcL2h3G8dzG1gcKwPtw-141" value="" style="rounded=0;whiteSpace=wrap;html=1;fillColor=#e1d5e7;strokeColor=#9673a6;container=0;" vertex="1" parent="nKcL2h3G8dzG1gcKwPtw-140">
          <mxGeometry width="1440" height="1308" as="geometry" />
        </mxCell>
        <mxCell id="nKcL2h3G8dzG1gcKwPtw-142" value="" style="rounded=0;whiteSpace=wrap;html=1;container=0;" vertex="1" parent="nKcL2h3G8dzG1gcKwPtw-140">
          <mxGeometry y="1207" width="1440" height="100" as="geometry" />
        </mxCell>
        <mxCell id="nKcL2h3G8dzG1gcKwPtw-143" value="&lt;h1 style=&quot;margin-top: 0px;&quot;&gt;Bienvenue ! Première fois sur notre site ?&lt;/h1&gt;" style="text;html=1;whiteSpace=wrap;overflow=hidden;rounded=0;fontSize=32;container=0;align=left;" vertex="1" parent="nKcL2h3G8dzG1gcKwPtw-140">
          <mxGeometry x="46" y="146" width="1182" height="216" as="geometry" />
        </mxCell>
        <UserObject label="S&#39;inscrire" link="https://www.draw.io" id="nKcL2h3G8dzG1gcKwPtw-144">
          <mxCell style="text;html=1;strokeColor=none;fillColor=none;whiteSpace=wrap;align=left;verticalAlign=middle;fontColor=#0000EE;fontStyle=4;fontSize=60;container=0;" vertex="1" parent="nKcL2h3G8dzG1gcKwPtw-140">
            <mxGeometry x="55" y="635" width="460" height="110" as="geometry" />
          </mxCell>
        </UserObject>
        <mxCell id="nKcL2h3G8dzG1gcKwPtw-145" value="FOOTER" style="text;html=1;align=center;verticalAlign=middle;whiteSpace=wrap;rounded=0;fontSize=48;container=0;" vertex="1" parent="nKcL2h3G8dzG1gcKwPtw-140">
          <mxGeometry x="536" y="1210" width="405" height="91" as="geometry" />
        </mxCell>
        <mxCell id="nKcL2h3G8dzG1gcKwPtw-146" value="" style="rounded=1;whiteSpace=wrap;html=1;strokeWidth=2;fillWeight=4;hachureGap=8;hachureAngle=45;sketch=1;fillColor=#6a00ff;fontColor=#ffffff;strokeColor=#3700CC;" vertex="1" parent="nKcL2h3G8dzG1gcKwPtw-140">
          <mxGeometry x="55" y="384" width="661" height="73" as="geometry" />
        </mxCell>
        <mxCell id="nKcL2h3G8dzG1gcKwPtw-147" value="" style="rounded=1;whiteSpace=wrap;html=1;strokeWidth=2;fillWeight=4;hachureGap=8;hachureAngle=45;sketch=1;fillColor=#6a00ff;fontColor=#ffffff;strokeColor=#3700CC;" vertex="1" parent="nKcL2h3G8dzG1gcKwPtw-140">
          <mxGeometry x="55" y="509" width="661" height="73" as="geometry" />
        </mxCell>
        <mxCell id="nKcL2h3G8dzG1gcKwPtw-148" value="" style="rounded=1;whiteSpace=wrap;html=1;strokeWidth=2;fillWeight=4;hachureGap=8;hachureAngle=45;fillColor=#0050ef;sketch=1;fontColor=#ffffff;strokeColor=#001DBC;" vertex="1" parent="nKcL2h3G8dzG1gcKwPtw-140">
          <mxGeometry x="875" y="331" width="498" height="580" as="geometry" />
        </mxCell>
        <mxCell id="nKcL2h3G8dzG1gcKwPtw-149" value="" style="group" vertex="1" connectable="0" parent="nKcL2h3G8dzG1gcKwPtw-140">
          <mxGeometry y="1" width="1440" height="100" as="geometry" />
        </mxCell>
        <mxCell id="nKcL2h3G8dzG1gcKwPtw-150" value="Lien" style="text;html=1;align=center;verticalAlign=middle;whiteSpace=wrap;rounded=0;fontSize=28;container=0;" vertex="1" parent="nKcL2h3G8dzG1gcKwPtw-149">
          <mxGeometry x="1284" y="34" width="155" height="30" as="geometry" />
        </mxCell>
        <mxCell id="nKcL2h3G8dzG1gcKwPtw-151" value="Lien" style="text;html=1;align=center;verticalAlign=middle;whiteSpace=wrap;rounded=0;fontSize=28;container=0;" vertex="1" parent="nKcL2h3G8dzG1gcKwPtw-149">
          <mxGeometry x="1148" y="34" width="155" height="30" as="geometry" />
        </mxCell>
        <mxCell id="nKcL2h3G8dzG1gcKwPtw-152" value="Lien" style="text;html=1;align=center;verticalAlign=middle;whiteSpace=wrap;rounded=0;fontSize=28;container=0;" vertex="1" parent="nKcL2h3G8dzG1gcKwPtw-149">
          <mxGeometry x="1008" y="34" width="155" height="30" as="geometry" />
        </mxCell>
        <mxCell id="nKcL2h3G8dzG1gcKwPtw-153" value="Lien" style="text;html=1;align=center;verticalAlign=middle;whiteSpace=wrap;rounded=0;fontSize=28;container=0;" vertex="1" parent="nKcL2h3G8dzG1gcKwPtw-149">
          <mxGeometry x="859" y="34" width="155" height="30" as="geometry" />
        </mxCell>
        <mxCell id="nKcL2h3G8dzG1gcKwPtw-154" value="" style="rounded=0;whiteSpace=wrap;html=1;container=0;" vertex="1" parent="nKcL2h3G8dzG1gcKwPtw-149">
          <mxGeometry width="1440" height="100" as="geometry" />
        </mxCell>
        <mxCell id="nKcL2h3G8dzG1gcKwPtw-155" value="Logo" style="text;html=1;align=center;verticalAlign=middle;whiteSpace=wrap;rounded=0;fontSize=48;container=0;" vertex="1" parent="nKcL2h3G8dzG1gcKwPtw-149">
          <mxGeometry y="26" width="178" height="45" as="geometry" />
        </mxCell>
        <mxCell id="nKcL2h3G8dzG1gcKwPtw-156" value="Lien" style="text;html=1;align=center;verticalAlign=middle;whiteSpace=wrap;rounded=0;fontSize=36;container=0;" vertex="1" parent="nKcL2h3G8dzG1gcKwPtw-149">
          <mxGeometry x="1217" y="13" width="213" height="80" as="geometry" />
        </mxCell>
        <mxCell id="nKcL2h3G8dzG1gcKwPtw-157" value="Lien" style="text;html=1;align=center;verticalAlign=middle;whiteSpace=wrap;rounded=0;fontSize=36;container=0;" vertex="1" parent="nKcL2h3G8dzG1gcKwPtw-149">
          <mxGeometry x="1059" y="13" width="213" height="80" as="geometry" />
        </mxCell>
        <mxCell id="nKcL2h3G8dzG1gcKwPtw-158" value="Lien" style="text;html=1;align=center;verticalAlign=middle;whiteSpace=wrap;rounded=0;fontSize=36;container=0;" vertex="1" parent="nKcL2h3G8dzG1gcKwPtw-149">
          <mxGeometry x="887" y="13" width="213" height="80" as="geometry" />
        </mxCell>
        <mxCell id="nKcL2h3G8dzG1gcKwPtw-159" value="" style="group" vertex="1" connectable="0" parent="1">
          <mxGeometry x="-4242" y="-1175" width="1440" height="2541" as="geometry" />
        </mxCell>
        <mxCell id="nKcL2h3G8dzG1gcKwPtw-160" value="" style="rounded=0;whiteSpace=wrap;html=1;fillColor=#e1d5e7;strokeColor=#9673a6;container=0;" vertex="1" parent="nKcL2h3G8dzG1gcKwPtw-159">
          <mxGeometry width="1440" height="2540" as="geometry" />
        </mxCell>
        <mxCell id="nKcL2h3G8dzG1gcKwPtw-161" value="" style="rounded=0;whiteSpace=wrap;html=1;container=0;" vertex="1" parent="nKcL2h3G8dzG1gcKwPtw-159">
          <mxGeometry y="2439" width="1440" height="100" as="geometry" />
        </mxCell>
        <mxCell id="nKcL2h3G8dzG1gcKwPtw-162" value="Lien" style="text;html=1;align=center;verticalAlign=middle;whiteSpace=wrap;rounded=0;fontSize=28;container=0;" vertex="1" parent="nKcL2h3G8dzG1gcKwPtw-159">
          <mxGeometry x="1284" y="35" width="155" height="30" as="geometry" />
        </mxCell>
        <mxCell id="nKcL2h3G8dzG1gcKwPtw-163" value="Lien" style="text;html=1;align=center;verticalAlign=middle;whiteSpace=wrap;rounded=0;fontSize=28;container=0;" vertex="1" parent="nKcL2h3G8dzG1gcKwPtw-159">
          <mxGeometry x="1148" y="35" width="155" height="30" as="geometry" />
        </mxCell>
        <mxCell id="nKcL2h3G8dzG1gcKwPtw-164" value="Lien" style="text;html=1;align=center;verticalAlign=middle;whiteSpace=wrap;rounded=0;fontSize=28;container=0;" vertex="1" parent="nKcL2h3G8dzG1gcKwPtw-159">
          <mxGeometry x="1008" y="35" width="155" height="30" as="geometry" />
        </mxCell>
        <mxCell id="nKcL2h3G8dzG1gcKwPtw-165" value="Lien" style="text;html=1;align=center;verticalAlign=middle;whiteSpace=wrap;rounded=0;fontSize=28;container=0;" vertex="1" parent="nKcL2h3G8dzG1gcKwPtw-159">
          <mxGeometry x="859" y="35" width="155" height="30" as="geometry" />
        </mxCell>
        <mxCell id="nKcL2h3G8dzG1gcKwPtw-166" value="" style="rounded=1;whiteSpace=wrap;html=1;strokeWidth=2;fillWeight=4;hachureGap=8;hachureAngle=45;fillColor=#1ba1e2;sketch=1;container=0;" vertex="1" parent="nKcL2h3G8dzG1gcKwPtw-159">
          <mxGeometry x="62" y="155" width="740" height="500" as="geometry" />
        </mxCell>
        <mxCell id="nKcL2h3G8dzG1gcKwPtw-167" value="&lt;h1 style=&quot;margin-top: 0px;&quot;&gt;Heading&lt;/h1&gt;&lt;p&gt;Lorem ipsum dolor sit amet, consectetur adipisicing elit, sed do eiusmod tempor incididunt ut labore et dolore magna aliqua.&lt;/p&gt;&lt;p&gt;Lorem ipsum dolor sit amet, consectetur adipisicing elit, sed do eiusmod tempor incididunt ut labore et dolore magna aliqua.&lt;/p&gt;&lt;p&gt;Lorem ipsum dolor sit amet, consectetur adipisicing elit, sed do eiusmod tempor incididunt ut labore et dolore magna aliqua.&lt;/p&gt;" style="text;html=1;whiteSpace=wrap;overflow=hidden;rounded=0;fontSize=24;container=0;" vertex="1" parent="nKcL2h3G8dzG1gcKwPtw-159">
          <mxGeometry x="908" y="155" width="489" height="500" as="geometry" />
        </mxCell>
        <mxCell id="nKcL2h3G8dzG1gcKwPtw-168" value="" style="rounded=1;whiteSpace=wrap;html=1;strokeWidth=2;fillWeight=4;hachureGap=8;hachureAngle=45;fillColor=#ffff88;sketch=1;strokeColor=#36393d;container=0;" vertex="1" parent="nKcL2h3G8dzG1gcKwPtw-159">
          <mxGeometry x="851" y="866" width="536" height="740" as="geometry" />
        </mxCell>
        <mxCell id="nKcL2h3G8dzG1gcKwPtw-169" value="" style="rounded=1;whiteSpace=wrap;html=1;strokeWidth=2;fillWeight=4;hachureGap=8;hachureAngle=45;fillColor=#ffcccc;sketch=1;strokeColor=#36393d;container=0;" vertex="1" parent="nKcL2h3G8dzG1gcKwPtw-159">
          <mxGeometry x="56" y="1203" width="740" height="409" as="geometry" />
        </mxCell>
        <mxCell id="nKcL2h3G8dzG1gcKwPtw-170" value="&lt;h1 style=&quot;margin-top: 0px;&quot;&gt;&lt;font style=&quot;font-size: 44px;&quot;&gt;Heading&lt;/font&gt;&lt;/h1&gt;&lt;p&gt;&lt;font style=&quot;font-size: 24px;&quot;&gt;Lorem ipsum dolor sit amet, consectetur adipisicing elit, sed do eiusmod tempor incididunt ut labore et dolore magna aliqua.&lt;/font&gt;&lt;/p&gt;&lt;p&gt;&lt;font style=&quot;font-size: 24px;&quot;&gt;Lorem ipsum dolor sit amet, consectetur adipisicing elit, sed do eiusmod tempor incididunt ut labore et dolore magna aliqua.&lt;/font&gt;&lt;/p&gt;&lt;p&gt;&lt;font style=&quot;font-size: 24px;&quot;&gt;Lorem ipsum dolor sit amet, consectetur adipisicing elit, sed do eiusmod tempor incididunt ut labore et dolore magna aliqua.&lt;/font&gt;&lt;/p&gt;" style="text;html=1;whiteSpace=wrap;overflow=hidden;rounded=0;fontSize=20;container=0;" vertex="1" parent="nKcL2h3G8dzG1gcKwPtw-159">
          <mxGeometry x="56" y="855" width="767" height="329" as="geometry" />
        </mxCell>
        <mxCell id="nKcL2h3G8dzG1gcKwPtw-171" value="&lt;h1 style=&quot;margin-top: 0px;&quot;&gt;&lt;font style=&quot;font-size: 44px;&quot;&gt;Heading&lt;/font&gt;&lt;/h1&gt;&lt;p&gt;&lt;font style=&quot;font-size: 24px;&quot;&gt;Lorem ipsum dolor sit amet, consectetur adipisicing elit, sed do eiusmod tempor incididunt ut labore et dolore magna aliqua.&lt;/font&gt;&lt;/p&gt;&lt;p&gt;&lt;font style=&quot;font-size: 24px;&quot;&gt;Lorem ipsum dolor sit amet, consectetur adipisicing elit, sed do eiusmod tempor incididunt ut labore et dolore magna aliqua.&lt;/font&gt;&lt;/p&gt;&lt;p&gt;&lt;font style=&quot;font-size: 24px;&quot;&gt;Lorem ipsum dolor sit amet, consectetur adipisicing elit, sed do eiusmod tempor incididunt ut labore et dolore magna aliqua.&lt;/font&gt;&lt;/p&gt;" style="text;html=1;whiteSpace=wrap;overflow=hidden;rounded=0;fontSize=20;container=0;" vertex="1" parent="nKcL2h3G8dzG1gcKwPtw-159">
          <mxGeometry x="56" y="1817" width="767" height="329" as="geometry" />
        </mxCell>
        <mxCell id="nKcL2h3G8dzG1gcKwPtw-172" value="" style="rounded=1;whiteSpace=wrap;html=1;strokeWidth=2;fillWeight=4;hachureGap=8;hachureAngle=45;fillColor=#ffcc99;sketch=1;strokeColor=#36393d;container=0;" vertex="1" parent="nKcL2h3G8dzG1gcKwPtw-159">
          <mxGeometry x="833" y="1834" width="556" height="60" as="geometry" />
        </mxCell>
        <mxCell id="nKcL2h3G8dzG1gcKwPtw-173" value="" style="rounded=1;whiteSpace=wrap;html=1;strokeWidth=2;fillWeight=4;hachureGap=8;hachureAngle=45;fillColor=#ffcc99;sketch=1;strokeColor=#36393d;container=0;" vertex="1" parent="nKcL2h3G8dzG1gcKwPtw-159">
          <mxGeometry x="833" y="1933" width="556" height="60" as="geometry" />
        </mxCell>
        <mxCell id="nKcL2h3G8dzG1gcKwPtw-174" value="" style="rounded=1;whiteSpace=wrap;html=1;strokeWidth=2;fillWeight=4;hachureGap=8;hachureAngle=45;fillColor=#ffcc99;sketch=1;strokeColor=#36393d;container=0;" vertex="1" parent="nKcL2h3G8dzG1gcKwPtw-159">
          <mxGeometry x="833" y="2034" width="556" height="60" as="geometry" />
        </mxCell>
        <mxCell id="nKcL2h3G8dzG1gcKwPtw-175" value="" style="rounded=1;whiteSpace=wrap;html=1;strokeWidth=2;fillWeight=4;hachureGap=8;hachureAngle=45;fillColor=#ffcc99;sketch=1;strokeColor=#36393d;container=0;" vertex="1" parent="nKcL2h3G8dzG1gcKwPtw-159">
          <mxGeometry x="833" y="2133" width="556" height="60" as="geometry" />
        </mxCell>
        <UserObject label="Button" link="https://www.draw.io" id="nKcL2h3G8dzG1gcKwPtw-176">
          <mxCell style="text;html=1;strokeColor=none;fillColor=none;whiteSpace=wrap;align=left;verticalAlign=middle;fontColor=#0000EE;fontStyle=4;fontSize=32;container=0;" vertex="1" parent="nKcL2h3G8dzG1gcKwPtw-159">
            <mxGeometry x="908" y="599" width="184" height="40" as="geometry" />
          </mxCell>
        </UserObject>
        <mxCell id="nKcL2h3G8dzG1gcKwPtw-177" value="FOOTER" style="text;html=1;align=center;verticalAlign=middle;whiteSpace=wrap;rounded=0;fontSize=48;container=0;" vertex="1" parent="nKcL2h3G8dzG1gcKwPtw-159">
          <mxGeometry x="545" y="2450" width="405" height="91" as="geometry" />
        </mxCell>
        <mxCell id="nKcL2h3G8dzG1gcKwPtw-178" value="" style="rounded=0;whiteSpace=wrap;html=1;container=0;" vertex="1" parent="nKcL2h3G8dzG1gcKwPtw-159">
          <mxGeometry y="1" width="1440" height="100" as="geometry" />
        </mxCell>
        <mxCell id="nKcL2h3G8dzG1gcKwPtw-179" value="Logo" style="text;html=1;align=center;verticalAlign=middle;whiteSpace=wrap;rounded=0;fontSize=48;container=0;" vertex="1" parent="nKcL2h3G8dzG1gcKwPtw-159">
          <mxGeometry y="27" width="178" height="45" as="geometry" />
        </mxCell>
        <mxCell id="nKcL2h3G8dzG1gcKwPtw-180" value="" style="rounded=0;whiteSpace=wrap;html=1;container=0;" vertex="1" parent="nKcL2h3G8dzG1gcKwPtw-159">
          <mxGeometry y="717" width="1440" height="100" as="geometry" />
        </mxCell>
        <mxCell id="nKcL2h3G8dzG1gcKwPtw-181" value="" style="rounded=0;whiteSpace=wrap;html=1;container=0;" vertex="1" parent="nKcL2h3G8dzG1gcKwPtw-159">
          <mxGeometry y="1677" width="1440" height="100" as="geometry" />
        </mxCell>
        <mxCell id="nKcL2h3G8dzG1gcKwPtw-182" value="Lien" style="text;html=1;align=center;verticalAlign=middle;whiteSpace=wrap;rounded=0;fontSize=36;container=0;" vertex="1" parent="nKcL2h3G8dzG1gcKwPtw-159">
          <mxGeometry x="1217" y="14" width="213" height="80" as="geometry" />
        </mxCell>
        <mxCell id="nKcL2h3G8dzG1gcKwPtw-183" value="Lien" style="text;html=1;align=center;verticalAlign=middle;whiteSpace=wrap;rounded=0;fontSize=36;container=0;" vertex="1" parent="nKcL2h3G8dzG1gcKwPtw-159">
          <mxGeometry x="1059" y="14" width="213" height="80" as="geometry" />
        </mxCell>
        <mxCell id="nKcL2h3G8dzG1gcKwPtw-184" value="Lien" style="text;html=1;align=center;verticalAlign=middle;whiteSpace=wrap;rounded=0;fontSize=36;container=0;" vertex="1" parent="nKcL2h3G8dzG1gcKwPtw-159">
          <mxGeometry x="887" y="14" width="213" height="80" as="geometry" />
        </mxCell>
        <mxCell id="nKcL2h3G8dzG1gcKwPtw-230" value="" style="group" vertex="1" connectable="0" parent="1">
          <mxGeometry x="-2610" y="-1174" width="1440" height="2541" as="geometry" />
        </mxCell>
        <mxCell id="nKcL2h3G8dzG1gcKwPtw-231" value="" style="rounded=0;whiteSpace=wrap;html=1;fillColor=#e1d5e7;strokeColor=#9673a6;container=0;" vertex="1" parent="nKcL2h3G8dzG1gcKwPtw-230">
          <mxGeometry width="1440" height="2540" as="geometry" />
        </mxCell>
        <mxCell id="nKcL2h3G8dzG1gcKwPtw-232" value="" style="rounded=0;whiteSpace=wrap;html=1;container=0;" vertex="1" parent="nKcL2h3G8dzG1gcKwPtw-230">
          <mxGeometry y="2439" width="1440" height="100" as="geometry" />
        </mxCell>
        <mxCell id="nKcL2h3G8dzG1gcKwPtw-233" value="Lien" style="text;html=1;align=center;verticalAlign=middle;whiteSpace=wrap;rounded=0;fontSize=28;container=0;" vertex="1" parent="nKcL2h3G8dzG1gcKwPtw-230">
          <mxGeometry x="1284" y="35" width="155" height="30" as="geometry" />
        </mxCell>
        <mxCell id="nKcL2h3G8dzG1gcKwPtw-234" value="Lien" style="text;html=1;align=center;verticalAlign=middle;whiteSpace=wrap;rounded=0;fontSize=28;container=0;" vertex="1" parent="nKcL2h3G8dzG1gcKwPtw-230">
          <mxGeometry x="1148" y="35" width="155" height="30" as="geometry" />
        </mxCell>
        <mxCell id="nKcL2h3G8dzG1gcKwPtw-235" value="Lien" style="text;html=1;align=center;verticalAlign=middle;whiteSpace=wrap;rounded=0;fontSize=28;container=0;" vertex="1" parent="nKcL2h3G8dzG1gcKwPtw-230">
          <mxGeometry x="1008" y="35" width="155" height="30" as="geometry" />
        </mxCell>
        <mxCell id="nKcL2h3G8dzG1gcKwPtw-236" value="Lien" style="text;html=1;align=center;verticalAlign=middle;whiteSpace=wrap;rounded=0;fontSize=28;container=0;" vertex="1" parent="nKcL2h3G8dzG1gcKwPtw-230">
          <mxGeometry x="859" y="35" width="155" height="30" as="geometry" />
        </mxCell>
        <mxCell id="nKcL2h3G8dzG1gcKwPtw-238" value="&lt;h1 style=&quot;margin-top: 0px;&quot;&gt;Bibliothèque&lt;/h1&gt;" style="text;html=1;whiteSpace=wrap;overflow=hidden;rounded=0;fontSize=28;container=0;align=center;" vertex="1" parent="nKcL2h3G8dzG1gcKwPtw-230">
          <mxGeometry x="464" y="155" width="489" height="100" as="geometry" />
        </mxCell>
        <mxCell id="nKcL2h3G8dzG1gcKwPtw-240" value="" style="rounded=1;whiteSpace=wrap;html=1;strokeWidth=2;fillWeight=4;hachureGap=8;hachureAngle=45;fillColor=#ffcccc;sketch=1;strokeColor=#36393d;container=0;" vertex="1" parent="nKcL2h3G8dzG1gcKwPtw-230">
          <mxGeometry x="47" y="470" width="340" height="236" as="geometry" />
        </mxCell>
        <mxCell id="nKcL2h3G8dzG1gcKwPtw-242" value="&lt;h1 style=&quot;margin-top: 0px;&quot;&gt;&lt;font style=&quot;font-size: 44px;&quot;&gt;Heading&lt;/font&gt;&lt;/h1&gt;&lt;p&gt;&lt;font style=&quot;font-size: 24px;&quot;&gt;Lorem ipsum dolor sit amet, consectetur adipisicing elit, sed do eiusmod tempor incididunt ut labore et dolore magna aliqua.&lt;/font&gt;&lt;/p&gt;&lt;p&gt;&lt;font style=&quot;font-size: 24px;&quot;&gt;Lorem ipsum dolor sit amet, consectetur adipisicing elit, sed do eiusmod tempor incididunt ut labore et dolore magna aliqua.&lt;/font&gt;&lt;/p&gt;&lt;p&gt;&lt;font style=&quot;font-size: 24px;&quot;&gt;Lorem ipsum dolor sit amet, consectetur adipisicing elit, sed do eiusmod tempor incididunt ut labore et dolore magna aliqua.&lt;/font&gt;&lt;/p&gt;" style="text;html=1;whiteSpace=wrap;overflow=hidden;rounded=0;fontSize=20;container=0;" vertex="1" parent="nKcL2h3G8dzG1gcKwPtw-230">
          <mxGeometry x="56" y="1817" width="767" height="329" as="geometry" />
        </mxCell>
        <mxCell id="nKcL2h3G8dzG1gcKwPtw-243" value="" style="rounded=1;whiteSpace=wrap;html=1;strokeWidth=2;fillWeight=4;hachureGap=8;hachureAngle=45;fillColor=#ffcc99;sketch=1;strokeColor=#36393d;container=0;" vertex="1" parent="nKcL2h3G8dzG1gcKwPtw-230">
          <mxGeometry x="833" y="1834" width="556" height="60" as="geometry" />
        </mxCell>
        <mxCell id="nKcL2h3G8dzG1gcKwPtw-244" value="" style="rounded=1;whiteSpace=wrap;html=1;strokeWidth=2;fillWeight=4;hachureGap=8;hachureAngle=45;fillColor=#ffcc99;sketch=1;strokeColor=#36393d;container=0;" vertex="1" parent="nKcL2h3G8dzG1gcKwPtw-230">
          <mxGeometry x="833" y="1933" width="556" height="60" as="geometry" />
        </mxCell>
        <mxCell id="nKcL2h3G8dzG1gcKwPtw-245" value="" style="rounded=1;whiteSpace=wrap;html=1;strokeWidth=2;fillWeight=4;hachureGap=8;hachureAngle=45;fillColor=#ffcc99;sketch=1;strokeColor=#36393d;container=0;" vertex="1" parent="nKcL2h3G8dzG1gcKwPtw-230">
          <mxGeometry x="833" y="2034" width="556" height="60" as="geometry" />
        </mxCell>
        <mxCell id="nKcL2h3G8dzG1gcKwPtw-246" value="" style="rounded=1;whiteSpace=wrap;html=1;strokeWidth=2;fillWeight=4;hachureGap=8;hachureAngle=45;fillColor=#ffcc99;sketch=1;strokeColor=#36393d;container=0;" vertex="1" parent="nKcL2h3G8dzG1gcKwPtw-230">
          <mxGeometry x="833" y="2133" width="556" height="60" as="geometry" />
        </mxCell>
        <mxCell id="nKcL2h3G8dzG1gcKwPtw-248" value="FOOTER" style="text;html=1;align=center;verticalAlign=middle;whiteSpace=wrap;rounded=0;fontSize=48;container=0;" vertex="1" parent="nKcL2h3G8dzG1gcKwPtw-230">
          <mxGeometry x="545" y="2450" width="405" height="91" as="geometry" />
        </mxCell>
        <mxCell id="nKcL2h3G8dzG1gcKwPtw-249" value="" style="rounded=0;whiteSpace=wrap;html=1;container=0;" vertex="1" parent="nKcL2h3G8dzG1gcKwPtw-230">
          <mxGeometry y="1" width="1440" height="100" as="geometry" />
        </mxCell>
        <mxCell id="nKcL2h3G8dzG1gcKwPtw-250" value="Logo" style="text;html=1;align=center;verticalAlign=middle;whiteSpace=wrap;rounded=0;fontSize=48;container=0;" vertex="1" parent="nKcL2h3G8dzG1gcKwPtw-230">
          <mxGeometry y="27" width="178" height="45" as="geometry" />
        </mxCell>
        <mxCell id="nKcL2h3G8dzG1gcKwPtw-251" value="" style="rounded=0;whiteSpace=wrap;html=1;container=0;" vertex="1" parent="nKcL2h3G8dzG1gcKwPtw-230">
          <mxGeometry y="317" width="1440" height="100" as="geometry" />
        </mxCell>
        <mxCell id="nKcL2h3G8dzG1gcKwPtw-252" value="" style="rounded=0;whiteSpace=wrap;html=1;container=0;" vertex="1" parent="nKcL2h3G8dzG1gcKwPtw-230">
          <mxGeometry y="1677" width="1440" height="100" as="geometry" />
        </mxCell>
        <mxCell id="nKcL2h3G8dzG1gcKwPtw-253" value="Lien" style="text;html=1;align=center;verticalAlign=middle;whiteSpace=wrap;rounded=0;fontSize=36;container=0;" vertex="1" parent="nKcL2h3G8dzG1gcKwPtw-230">
          <mxGeometry x="1217" y="14" width="213" height="80" as="geometry" />
        </mxCell>
        <mxCell id="nKcL2h3G8dzG1gcKwPtw-254" value="Lien" style="text;html=1;align=center;verticalAlign=middle;whiteSpace=wrap;rounded=0;fontSize=36;container=0;" vertex="1" parent="nKcL2h3G8dzG1gcKwPtw-230">
          <mxGeometry x="1059" y="14" width="213" height="80" as="geometry" />
        </mxCell>
        <mxCell id="nKcL2h3G8dzG1gcKwPtw-255" value="Lien" style="text;html=1;align=center;verticalAlign=middle;whiteSpace=wrap;rounded=0;fontSize=36;container=0;" vertex="1" parent="nKcL2h3G8dzG1gcKwPtw-230">
          <mxGeometry x="887" y="14" width="213" height="80" as="geometry" />
        </mxCell>
        <mxCell id="nKcL2h3G8dzG1gcKwPtw-256" value="Lien" style="text;html=1;align=center;verticalAlign=middle;whiteSpace=wrap;rounded=0;fontSize=36;container=0;" vertex="1" parent="nKcL2h3G8dzG1gcKwPtw-230">
          <mxGeometry x="12" y="330" width="213" height="80" as="geometry" />
        </mxCell>
        <mxCell id="nKcL2h3G8dzG1gcKwPtw-257" value="Lien" style="text;html=1;align=center;verticalAlign=middle;whiteSpace=wrap;rounded=0;fontSize=36;container=0;" vertex="1" parent="nKcL2h3G8dzG1gcKwPtw-230">
          <mxGeometry x="235" y="330" width="213" height="80" as="geometry" />
        </mxCell>
        <mxCell id="nKcL2h3G8dzG1gcKwPtw-258" value="Lien" style="text;html=1;align=center;verticalAlign=middle;whiteSpace=wrap;rounded=0;fontSize=36;container=0;" vertex="1" parent="nKcL2h3G8dzG1gcKwPtw-230">
          <mxGeometry x="502" y="330" width="213" height="80" as="geometry" />
        </mxCell>
        <mxCell id="nKcL2h3G8dzG1gcKwPtw-259" value="Lien" style="text;html=1;align=center;verticalAlign=middle;whiteSpace=wrap;rounded=0;fontSize=36;container=0;" vertex="1" parent="nKcL2h3G8dzG1gcKwPtw-230">
          <mxGeometry x="743" y="330" width="213" height="80" as="geometry" />
        </mxCell>
        <mxCell id="nKcL2h3G8dzG1gcKwPtw-260" value="Lien" style="text;html=1;align=center;verticalAlign=middle;whiteSpace=wrap;rounded=0;fontSize=36;container=0;" vertex="1" parent="nKcL2h3G8dzG1gcKwPtw-230">
          <mxGeometry x="1232" y="330" width="213" height="80" as="geometry" />
        </mxCell>
        <mxCell id="nKcL2h3G8dzG1gcKwPtw-261" value="Lien" style="text;html=1;align=center;verticalAlign=middle;whiteSpace=wrap;rounded=0;fontSize=36;container=0;" vertex="1" parent="nKcL2h3G8dzG1gcKwPtw-230">
          <mxGeometry x="997" y="330" width="213" height="80" as="geometry" />
        </mxCell>
        <mxCell id="nKcL2h3G8dzG1gcKwPtw-263" value="" style="rounded=1;whiteSpace=wrap;html=1;strokeWidth=2;fillWeight=4;hachureGap=8;hachureAngle=45;fillColor=#ffcccc;sketch=1;strokeColor=#36393d;container=0;" vertex="1" parent="nKcL2h3G8dzG1gcKwPtw-230">
          <mxGeometry x="550" y="470" width="340" height="236" as="geometry" />
        </mxCell>
        <mxCell id="nKcL2h3G8dzG1gcKwPtw-265" value="" style="rounded=1;whiteSpace=wrap;html=1;strokeWidth=2;fillWeight=4;hachureGap=8;hachureAngle=45;fillColor=#ffcccc;sketch=1;strokeColor=#36393d;container=0;" vertex="1" parent="nKcL2h3G8dzG1gcKwPtw-230">
          <mxGeometry x="1053" y="470" width="340" height="236" as="geometry" />
        </mxCell>
        <mxCell id="nKcL2h3G8dzG1gcKwPtw-266" value="" style="rounded=1;whiteSpace=wrap;html=1;strokeWidth=2;fillWeight=4;hachureGap=8;hachureAngle=45;fillColor=#ffcccc;sketch=1;strokeColor=#36393d;container=0;" vertex="1" parent="nKcL2h3G8dzG1gcKwPtw-230">
          <mxGeometry x="47" y="850" width="340" height="236" as="geometry" />
        </mxCell>
        <mxCell id="nKcL2h3G8dzG1gcKwPtw-267" value="" style="rounded=1;whiteSpace=wrap;html=1;strokeWidth=2;fillWeight=4;hachureGap=8;hachureAngle=45;fillColor=#ffcccc;sketch=1;strokeColor=#36393d;container=0;" vertex="1" parent="nKcL2h3G8dzG1gcKwPtw-230">
          <mxGeometry x="550" y="848" width="340" height="236" as="geometry" />
        </mxCell>
        <mxCell id="nKcL2h3G8dzG1gcKwPtw-268" value="" style="rounded=1;whiteSpace=wrap;html=1;strokeWidth=2;fillWeight=4;hachureGap=8;hachureAngle=45;fillColor=#ffcccc;sketch=1;strokeColor=#36393d;container=0;" vertex="1" parent="nKcL2h3G8dzG1gcKwPtw-230">
          <mxGeometry x="1053" y="848" width="340" height="236" as="geometry" />
        </mxCell>
        <mxCell id="nKcL2h3G8dzG1gcKwPtw-269" value="" style="rounded=1;whiteSpace=wrap;html=1;strokeWidth=2;fillWeight=4;hachureGap=8;hachureAngle=45;fillColor=#ffcccc;sketch=1;strokeColor=#36393d;container=0;" vertex="1" parent="nKcL2h3G8dzG1gcKwPtw-230">
          <mxGeometry x="47" y="1220" width="340" height="236" as="geometry" />
        </mxCell>
        <mxCell id="nKcL2h3G8dzG1gcKwPtw-270" value="" style="rounded=1;whiteSpace=wrap;html=1;strokeWidth=2;fillWeight=4;hachureGap=8;hachureAngle=45;fillColor=#ffcccc;sketch=1;strokeColor=#36393d;container=0;" vertex="1" parent="nKcL2h3G8dzG1gcKwPtw-230">
          <mxGeometry x="550" y="1220" width="340" height="236" as="geometry" />
        </mxCell>
        <mxCell id="nKcL2h3G8dzG1gcKwPtw-271" value="" style="rounded=1;whiteSpace=wrap;html=1;strokeWidth=2;fillWeight=4;hachureGap=8;hachureAngle=45;fillColor=#ffcccc;sketch=1;strokeColor=#36393d;container=0;" vertex="1" parent="nKcL2h3G8dzG1gcKwPtw-230">
          <mxGeometry x="1053" y="1220" width="340" height="236" as="geometry" />
        </mxCell>
        <mxCell id="nKcL2h3G8dzG1gcKwPtw-275" value="" style="group" vertex="1" connectable="0" parent="1">
          <mxGeometry x="-1055" y="-1166" width="1445" height="1375" as="geometry" />
        </mxCell>
        <mxCell id="nKcL2h3G8dzG1gcKwPtw-186" value="" style="rounded=0;whiteSpace=wrap;html=1;fillColor=#e1d5e7;strokeColor=#9673a6;container=0;" vertex="1" parent="nKcL2h3G8dzG1gcKwPtw-275">
          <mxGeometry width="1440" height="1375" as="geometry" />
        </mxCell>
        <mxCell id="nKcL2h3G8dzG1gcKwPtw-187" value="&lt;font style=&quot;font-size: 48px;&quot;&gt;FOOTER&lt;/font&gt;" style="rounded=0;whiteSpace=wrap;html=1;container=0;" vertex="1" parent="nKcL2h3G8dzG1gcKwPtw-275">
          <mxGeometry x="5" y="1275" width="1440" height="100" as="geometry" />
        </mxCell>
        <mxCell id="nKcL2h3G8dzG1gcKwPtw-188" value="Lien" style="text;html=1;align=center;verticalAlign=middle;whiteSpace=wrap;rounded=0;fontSize=28;container=0;" vertex="1" parent="nKcL2h3G8dzG1gcKwPtw-275">
          <mxGeometry x="1284" y="35" width="155" height="30" as="geometry" />
        </mxCell>
        <mxCell id="nKcL2h3G8dzG1gcKwPtw-189" value="Lien" style="text;html=1;align=center;verticalAlign=middle;whiteSpace=wrap;rounded=0;fontSize=28;container=0;" vertex="1" parent="nKcL2h3G8dzG1gcKwPtw-275">
          <mxGeometry x="1148" y="35" width="155" height="30" as="geometry" />
        </mxCell>
        <mxCell id="nKcL2h3G8dzG1gcKwPtw-190" value="Lien" style="text;html=1;align=center;verticalAlign=middle;whiteSpace=wrap;rounded=0;fontSize=28;container=0;" vertex="1" parent="nKcL2h3G8dzG1gcKwPtw-275">
          <mxGeometry x="1008" y="35" width="155" height="30" as="geometry" />
        </mxCell>
        <mxCell id="nKcL2h3G8dzG1gcKwPtw-191" value="Lien" style="text;html=1;align=center;verticalAlign=middle;whiteSpace=wrap;rounded=0;fontSize=28;container=0;" vertex="1" parent="nKcL2h3G8dzG1gcKwPtw-275">
          <mxGeometry x="859" y="35" width="155" height="30" as="geometry" />
        </mxCell>
        <mxCell id="nKcL2h3G8dzG1gcKwPtw-194" value="" style="rounded=1;whiteSpace=wrap;html=1;strokeWidth=2;fillWeight=4;hachureGap=8;hachureAngle=45;fillColor=#ffff88;sketch=1;strokeColor=#36393d;container=0;" vertex="1" parent="nKcL2h3G8dzG1gcKwPtw-275">
          <mxGeometry x="829" y="359" width="536" height="429" as="geometry" />
        </mxCell>
        <mxCell id="nKcL2h3G8dzG1gcKwPtw-195" value="" style="rounded=1;whiteSpace=wrap;html=1;strokeWidth=2;fillWeight=4;hachureGap=8;hachureAngle=45;fillColor=#ffcccc;sketch=1;strokeColor=#36393d;container=0;" vertex="1" parent="nKcL2h3G8dzG1gcKwPtw-275">
          <mxGeometry x="57" y="372" width="638" height="409" as="geometry" />
        </mxCell>
        <mxCell id="nKcL2h3G8dzG1gcKwPtw-204" value="" style="rounded=0;whiteSpace=wrap;html=1;container=0;" vertex="1" parent="nKcL2h3G8dzG1gcKwPtw-275">
          <mxGeometry y="1" width="1440" height="100" as="geometry" />
        </mxCell>
        <mxCell id="nKcL2h3G8dzG1gcKwPtw-205" value="Logo" style="text;html=1;align=center;verticalAlign=middle;whiteSpace=wrap;rounded=0;fontSize=48;container=0;" vertex="1" parent="nKcL2h3G8dzG1gcKwPtw-275">
          <mxGeometry y="27" width="178" height="45" as="geometry" />
        </mxCell>
        <mxCell id="nKcL2h3G8dzG1gcKwPtw-208" value="Lien" style="text;html=1;align=center;verticalAlign=middle;whiteSpace=wrap;rounded=0;fontSize=36;container=0;" vertex="1" parent="nKcL2h3G8dzG1gcKwPtw-275">
          <mxGeometry x="1217" y="14" width="213" height="80" as="geometry" />
        </mxCell>
        <mxCell id="nKcL2h3G8dzG1gcKwPtw-209" value="Lien" style="text;html=1;align=center;verticalAlign=middle;whiteSpace=wrap;rounded=0;fontSize=36;container=0;" vertex="1" parent="nKcL2h3G8dzG1gcKwPtw-275">
          <mxGeometry x="1059" y="14" width="213" height="80" as="geometry" />
        </mxCell>
        <mxCell id="nKcL2h3G8dzG1gcKwPtw-210" value="Lien" style="text;html=1;align=center;verticalAlign=middle;whiteSpace=wrap;rounded=0;fontSize=36;container=0;" vertex="1" parent="nKcL2h3G8dzG1gcKwPtw-275">
          <mxGeometry x="887" y="14" width="213" height="80" as="geometry" />
        </mxCell>
        <mxCell id="nKcL2h3G8dzG1gcKwPtw-272" value="&lt;h1 style=&quot;margin-top: 0px;&quot;&gt;Bienvenue, cher utilisateur !&lt;/h1&gt;" style="text;html=1;whiteSpace=wrap;overflow=hidden;rounded=0;fontSize=32;container=0;align=left;" vertex="1" parent="nKcL2h3G8dzG1gcKwPtw-275">
          <mxGeometry x="57" y="144" width="1026" height="100" as="geometry" />
        </mxCell>
        <mxCell id="nKcL2h3G8dzG1gcKwPtw-273" value="Mes playlists" style="text;html=1;align=center;verticalAlign=middle;whiteSpace=wrap;rounded=0;fontSize=48;container=0;" vertex="1" parent="nKcL2h3G8dzG1gcKwPtw-275">
          <mxGeometry x="176" y="526" width="405" height="91" as="geometry" />
        </mxCell>
        <mxCell id="nKcL2h3G8dzG1gcKwPtw-274" value="Modifier mon profil" style="text;html=1;align=center;verticalAlign=middle;whiteSpace=wrap;rounded=0;fontSize=48;container=0;" vertex="1" parent="nKcL2h3G8dzG1gcKwPtw-275">
          <mxGeometry x="896" y="523" width="405" height="91" as="geometry" />
        </mxCell>
        <mxCell id="nKcL2h3G8dzG1gcKwPtw-277" value="" style="rounded=0;whiteSpace=wrap;html=1;fillColor=#e1d5e7;strokeColor=#9673a6;container=0;" vertex="1" parent="1">
          <mxGeometry x="519" y="-1157" width="1440" height="1376" as="geometry" />
        </mxCell>
        <mxCell id="nKcL2h3G8dzG1gcKwPtw-278" value="&lt;font style=&quot;font-size: 48px;&quot;&gt;FOOTER&lt;/font&gt;" style="rounded=0;whiteSpace=wrap;html=1;container=0;" vertex="1" parent="1">
          <mxGeometry x="519" y="122" width="1440" height="100" as="geometry" />
        </mxCell>
        <mxCell id="nKcL2h3G8dzG1gcKwPtw-279" value="Lien" style="text;html=1;align=center;verticalAlign=middle;whiteSpace=wrap;rounded=0;fontSize=28;container=0;" vertex="1" parent="1">
          <mxGeometry x="1803" y="-1122" width="155" height="30" as="geometry" />
        </mxCell>
        <mxCell id="nKcL2h3G8dzG1gcKwPtw-280" value="Lien" style="text;html=1;align=center;verticalAlign=middle;whiteSpace=wrap;rounded=0;fontSize=28;container=0;" vertex="1" parent="1">
          <mxGeometry x="1667" y="-1122" width="155" height="30" as="geometry" />
        </mxCell>
        <mxCell id="nKcL2h3G8dzG1gcKwPtw-281" value="Lien" style="text;html=1;align=center;verticalAlign=middle;whiteSpace=wrap;rounded=0;fontSize=28;container=0;" vertex="1" parent="1">
          <mxGeometry x="1527" y="-1122" width="155" height="30" as="geometry" />
        </mxCell>
        <mxCell id="nKcL2h3G8dzG1gcKwPtw-282" value="Lien" style="text;html=1;align=center;verticalAlign=middle;whiteSpace=wrap;rounded=0;fontSize=28;container=0;" vertex="1" parent="1">
          <mxGeometry x="1378" y="-1122" width="155" height="30" as="geometry" />
        </mxCell>
        <mxCell id="nKcL2h3G8dzG1gcKwPtw-283" value="" style="rounded=1;whiteSpace=wrap;html=1;strokeWidth=2;fillWeight=4;hachureGap=8;hachureAngle=45;fillColor=#1ba1e2;sketch=1;container=0;" vertex="1" parent="1">
          <mxGeometry x="554" y="-829" width="740" height="500" as="geometry" />
        </mxCell>
        <mxCell id="nKcL2h3G8dzG1gcKwPtw-284" value="&lt;h1 style=&quot;margin-top: 0px;&quot;&gt;Heading&lt;/h1&gt;&lt;p&gt;Lorem ipsum dolor sit amet, consectetur adipisicing elit, sed do eiusmod tempor incididunt ut labore et dolore magna aliqua.&lt;/p&gt;&lt;p&gt;Lorem ipsum dolor sit amet, consectetur adipisicing elit, sed do eiusmod tempor incididunt ut labore et dolore magna aliqua.&lt;/p&gt;&lt;p&gt;Lorem ipsum dolor sit amet, consectetur adipisicing elit, sed do eiusmod tempor incididunt ut labore et dolore magna aliqua.&lt;/p&gt;" style="text;html=1;whiteSpace=wrap;overflow=hidden;rounded=0;fontSize=24;container=0;" vertex="1" parent="1">
          <mxGeometry x="1409" y="-829" width="489" height="500" as="geometry" />
        </mxCell>
        <UserObject label="Button" link="https://www.draw.io" id="nKcL2h3G8dzG1gcKwPtw-293">
          <mxCell style="text;html=1;strokeColor=none;fillColor=none;whiteSpace=wrap;align=left;verticalAlign=middle;fontColor=#0000EE;fontStyle=4;fontSize=32;container=0;" vertex="1" parent="1">
            <mxGeometry x="1418" y="-381" width="184" height="40" as="geometry" />
          </mxCell>
        </UserObject>
        <mxCell id="nKcL2h3G8dzG1gcKwPtw-295" value="" style="rounded=0;whiteSpace=wrap;html=1;container=0;" vertex="1" parent="1">
          <mxGeometry x="519" y="-1156" width="1440" height="100" as="geometry" />
        </mxCell>
        <mxCell id="nKcL2h3G8dzG1gcKwPtw-296" value="Logo" style="text;html=1;align=center;verticalAlign=middle;whiteSpace=wrap;rounded=0;fontSize=48;container=0;" vertex="1" parent="1">
          <mxGeometry x="519" y="-1130" width="178" height="45" as="geometry" />
        </mxCell>
        <mxCell id="nKcL2h3G8dzG1gcKwPtw-299" value="Lien" style="text;html=1;align=center;verticalAlign=middle;whiteSpace=wrap;rounded=0;fontSize=36;container=0;" vertex="1" parent="1">
          <mxGeometry x="1736" y="-1143" width="213" height="80" as="geometry" />
        </mxCell>
        <mxCell id="nKcL2h3G8dzG1gcKwPtw-300" value="Lien" style="text;html=1;align=center;verticalAlign=middle;whiteSpace=wrap;rounded=0;fontSize=36;container=0;" vertex="1" parent="1">
          <mxGeometry x="1578" y="-1143" width="213" height="80" as="geometry" />
        </mxCell>
        <mxCell id="nKcL2h3G8dzG1gcKwPtw-301" value="Lien" style="text;html=1;align=center;verticalAlign=middle;whiteSpace=wrap;rounded=0;fontSize=36;container=0;" vertex="1" parent="1">
          <mxGeometry x="1406" y="-1143" width="213" height="80" as="geometry" />
        </mxCell>
        <mxCell id="nKcL2h3G8dzG1gcKwPtw-302" value="&lt;h1 style=&quot;margin-top: 0px;&quot;&gt;Description&lt;/h1&gt;" style="text;html=1;whiteSpace=wrap;overflow=hidden;rounded=0;fontSize=28;container=0;align=center;" vertex="1" parent="1">
          <mxGeometry x="992" y="-992" width="489" height="100" as="geometry" />
        </mxCell>
        <mxCell id="nKcL2h3G8dzG1gcKwPtw-303" value="&lt;h1 style=&quot;margin-top: 0px;&quot;&gt;&lt;span style=&quot;background-color: transparent; color: light-dark(rgb(0, 0, 0), rgb(255, 255, 255)); font-weight: normal;&quot;&gt;&lt;font style=&quot;font-size: 24px;&quot;&gt;Lorem ipsum dolor sit amet, consectetur adipisicing elit, sed do eiusmod tempor incididunt ut labore et dolore magna aliqua.&lt;/font&gt;&lt;/span&gt;&lt;/h1&gt;&lt;p&gt;&lt;font&gt;Lorem ipsum dolor sit amet, consectetur adipisicing elit, sed do eiusmod tempor incididunt ut labore et dolore magna aliqua.&lt;/font&gt;&lt;/p&gt;&lt;p&gt;&lt;font&gt;Lorem ipsum dolor sit amet, consectetur adipisicing elit, sed do eiusmod tempor incididunt ut labore et dolore magna aliqua.&lt;/font&gt;&lt;/p&gt;" style="text;html=1;whiteSpace=wrap;overflow=hidden;rounded=0;fontSize=24;container=0;" vertex="1" parent="1">
          <mxGeometry x="554" y="-259" width="1378" height="207" as="geometry" />
        </mxCell>
      </root>
    </mxGraphModel>
  </diagram>
</mxfile>
